<svg width="709" height="183" viewBox="0 0 709 183" fill="none" xmlns="http://www.w3.org/2000/svg">
<g filter="url(#filter0_d_4_34)">
<path d="M15.6355 170.107L0.0801392 30.4355H32.8684L38.657 170.107H15.6355Z" fill="#FFFBF8"/>
<path d="M113.662 167.525L110.871 107.704C110.523 100.03 109.476 94.9725 107.732 92.5308C106.104 89.9729 103.488 88.694 99.8838 88.694C97.0933 88.694 93.1983 89.4497 88.1986 90.9612C83.199 92.3565 78.3157 94.5657 73.5486 97.5887L70.2349 167.525H48.783L44.2484 70.3814H74.7694L73.8973 88.8684C77.5017 84.7989 81.6293 81.1945 86.2801 78.0553C91.0472 74.9159 95.9887 72.4742 101.105 70.7302C106.22 68.9861 111.104 68.114 115.755 68.114C124.475 68.114 130.405 70.4977 133.544 75.2648C136.683 79.9156 138.253 86.7174 138.253 95.6702C138.253 96.4841 138.195 97.2979 138.079 98.1119C138.079 98.8095 138.079 99.6234 138.079 100.554L135.288 167.525H113.662Z" fill="#FFFBF8"/>
<path d="M245.388 165.897C225.506 167.676 211.85 166.763 199.874 165.135C187.898 163.507 178.224 158.362 171.248 154.642C164.272 150.921 159.272 146.038 156.249 139.992C153.226 133.946 151.715 126.562 151.715 117.842C151.715 106.564 153.808 96.8552 157.993 88.7163C162.179 80.5774 167.644 74.357 174.387 70.0549C181.247 65.6367 188.456 63.4275 196.014 63.4275C202.06 63.4275 208.164 64.3576 214.326 66.2179C220.489 68.0783 226.244 71.1012 231.593 75.287C236.941 79.4728 241.301 84.9957 244.673 91.8556C248.045 98.5993 249.963 106.913 250.428 116.796L177.284 128.381C178.331 134.776 180.259 137.027 185.026 141.561C189.91 145.979 197.235 149.875 207.001 153.246C216.768 156.618 231.246 158.826 250.297 155.537L245.388 165.897ZM221.303 102.495C220.721 97.9602 219.384 93.6582 217.291 89.5887C215.198 85.5193 212.524 82.2637 209.269 79.822C206.013 77.264 202.409 75.9852 198.455 75.9852C193.805 75.9852 189.793 77.0897 186.422 79.2988C183.05 81.508 180.434 85.7519 178.573 92.0304C176.713 98.1928 175.783 107.262 175.783 119.238V120.982C175.783 121.447 175.841 121.97 175.957 122.551L221.303 102.495Z" fill="#FFFBF8"/>
<path d="M264.504 167.158L261.887 85.1231L246.017 87.8575V63.247L261.364 65.9815L259.969 21.1355L314.907 36.4488L314.732 38.4541L289.095 44.8346L288.397 70.5389L311.593 74.5497V76.1904L288.223 80.3833L285.955 167.158H264.504Z" fill="#FF6600"/>
<path d="M334.466 165.637L331.85 80.8666L315.979 83.6922L325.594 70.7738L325.55 68.2664L310.807 58.6802L331.325 61.0867L329.93 14.7454L384.867 30.5693L384.693 32.6415L359.055 39.2347L358.358 65.7962L381.554 69.9406V71.636L358.183 75.9688L355.916 165.637H334.466Z" fill="#FF6600"/>
<path d="M467.444 154.133C462.095 159.133 457.386 163.086 453.317 165.993C449.248 168.9 445.585 170.353 442.329 170.353C439.772 170.353 437.446 169.365 435.353 167.388C433.377 165.295 431.516 161.981 429.772 157.447C426.168 160.586 421.75 163.26 416.517 165.47C411.285 167.562 405.646 168.958 399.6 169.655C397.74 169.888 395.938 170.062 394.194 170.179C392.449 170.295 390.764 170.353 389.136 170.353C372.742 170.353 364.545 164.481 364.545 152.738C364.545 151.343 364.661 149.889 364.893 148.378C365.126 146.866 365.475 145.239 365.94 143.495C366.986 139.658 369.079 136.228 372.218 133.205C375.474 130.065 379.369 127.275 383.904 124.833C388.438 122.275 393.089 119.95 397.856 117.857C402.623 115.648 407.041 113.613 411.111 111.753C415.297 109.776 418.669 107.858 421.226 105.997C423.901 104.137 425.238 102.277 425.238 100.416C425.238 95.3004 424.598 91.8705 423.319 90.1264C422.04 88.2661 419.599 87.336 415.994 87.336C413.436 87.336 409.483 87.5685 404.135 88.0336C398.786 88.4987 392.915 89.1963 386.52 90.1264C380.125 91.0565 374.021 92.2774 368.207 93.789L367.335 92.0448C370.474 89.0218 374.486 86.1151 379.369 83.3246C384.369 80.5341 389.659 78.0344 395.24 75.8252C400.937 73.6161 406.576 71.872 412.157 70.593C417.738 69.314 422.796 68.6744 427.331 68.6744C434.539 68.6744 439.888 69.4303 443.376 70.9418C446.98 72.3371 449.364 75.1857 450.526 79.4877C451.806 83.6734 452.445 90.0101 452.445 98.4979V142.622C452.445 146.808 452.794 149.831 453.491 151.692C454.305 153.436 456.108 154.308 458.898 154.308C459.828 154.308 460.933 154.191 462.212 153.959C463.607 153.726 465.119 153.436 466.746 153.087L467.444 154.133ZM426.633 115.59C424.075 117.799 420.645 120.182 416.343 122.74C412.157 125.182 408.088 127.856 404.135 130.763C400.181 133.553 397.275 136.693 395.414 140.181C393.787 143.436 392.973 146.285 392.973 148.727C392.973 151.052 393.67 152.971 395.066 154.482C396.577 155.994 398.67 156.749 401.344 156.749C401.925 156.749 402.507 156.749 403.088 156.749C403.786 156.633 404.425 156.517 405.007 156.4C407.332 155.819 410.006 155.005 413.029 153.959C416.169 152.912 419.075 151.691 421.75 150.296C424.54 148.901 426.517 147.506 427.679 146.111L426.633 115.59Z" fill="#FFFBF8"/>
<path d="M468.095 15.8234H498.616L496.523 76.3143C499.663 73.0088 503.267 69.9677 507.337 67.191C511.406 64.2822 515.65 61.9683 520.068 60.2494C524.603 58.3983 529.021 57.4727 533.323 57.4727C544.369 57.4727 552.566 61.3733 557.914 69.1743C563.379 76.8431 566.111 87.7513 566.111 101.899C566.111 117.898 562.274 131.186 554.6 141.763C546.927 152.341 536.172 160.208 522.335 165.365C508.615 170.521 492.512 173.1 474.025 173.1L468.095 15.8234ZM493.384 163.778C505.36 159.283 514.72 153.928 521.463 147.713C528.207 141.499 532.974 134.623 535.765 127.087C538.555 119.55 539.95 111.683 539.95 103.486C539.95 94.4945 538.613 88.0157 535.939 84.0491C533.265 80.0825 529.37 78.0993 524.254 78.0993C519.371 78.0993 514.72 78.562 510.301 79.4876C505.999 80.4131 501.29 82.0658 496.174 84.4457L493.384 163.778Z" fill="#FFFBF8"/>
<path d="M572.57 172.68L567.861 36.6431H599.08L594.371 172.68H572.57Z" fill="#FFFBF8"/>
<path d="M694.07 169.799C676.165 169.799 661.224 168.985 649.248 167.357C637.272 165.729 627.796 163.055 620.82 159.335C613.844 155.614 608.844 150.731 605.821 144.685C602.798 138.639 601.286 131.255 601.286 122.535C601.286 111.257 603.379 101.548 607.565 93.4093C611.751 85.2704 617.215 79.0499 623.959 74.7479C630.819 70.3296 638.028 68.1205 645.585 68.1205C651.631 68.1205 657.736 69.0506 663.898 70.9109C670.06 72.7712 675.816 75.7943 681.164 79.98C686.513 84.1658 690.873 89.6886 694.245 96.5486C697.617 103.292 699.535 111.606 700 121.489L625.878 129.86C626.924 136.255 629.831 141.72 634.598 146.254C639.481 150.672 646.806 154.568 656.573 157.939C666.34 161.311 679.071 164.567 694.768 167.706L694.07 169.799ZM670.874 107.187C670.293 102.653 668.956 98.3508 666.863 94.2813C664.77 90.2119 662.096 86.9563 658.84 84.5146C655.585 81.9567 651.98 80.6776 648.027 80.6776C643.376 80.6776 639.365 81.7823 635.993 83.9914C632.621 86.2006 630.005 90.4444 628.145 96.723C626.284 102.885 625.354 111.954 625.354 123.93C625.354 124.512 625.354 125.093 625.354 125.674C625.354 126.139 625.413 126.663 625.529 127.244L670.874 107.187Z" fill="#FFFBF8"/>
<path d="M32.8684 0.00012207H0V23.5184H32.8684V0.00012207Z" fill="#FFFBF8"/>
<path d="M511.619 64.4394C511.619 64.4394 517.448 59.6436 527.309 57.9776C533.693 56.8989 543.049 57.4633 548.949 60.8701C554.416 64.0264 559.057 69.1349 561.901 76.0305C566.867 88.0721 567.366 104.551 564.473 118.337C564.473 118.337 564.982 110.874 564.252 101.227C563.53 91.7056 559.934 79.2147 553.204 70.5039C543.359 57.7596 529.95 57.3937 511.619 64.4394Z" fill="#FFFBF8"/>
</g>
<defs>
<filter id="filter0_d_4_34" x="0" y="0.00012207" width="709" height="182.099" filterUnits="userSpaceOnUse" color-interpolation-filters="sRGB">
<feFlood flood-opacity="0" result="BackgroundImageFix"/>
<feColorMatrix in="SourceAlpha" type="matrix" values="0 0 0 0 0 0 0 0 0 0 0 0 0 0 0 0 0 0 127 0" result="hardAlpha"/>
<feOffset dx="5" dy="5"/>
<feGaussianBlur stdDeviation="2"/>
<feComposite in2="hardAlpha" operator="out"/>
<feColorMatrix type="matrix" values="0 0 0 0 0 0 0 0 0 0 0 0 0 0 0 0 0 0 0.56 0"/>
<feBlend mode="normal" in2="BackgroundImageFix" result="effect1_dropShadow_4_34"/>
<feBlend mode="normal" in="SourceGraphic" in2="effect1_dropShadow_4_34" result="shape"/>
</filter>
</defs>
</svg>
